<svg width="16" height="16" viewBox="0 0 16 16" fill="none" xmlns="http://www.w3.org/2000/svg">
<path d="M1.66602 12.6665V4.6665H14.3327V12.6665C14.3327 13.3998 13.7327 13.9998 12.9993 13.9998H2.99935C2.26602 13.9998 1.66602 13.3998 1.66602 12.6665Z" fill="#CFD8DC"/>
<path d="M14.3327 3.33333V5.33333H1.66602V3.33333C1.66602 2.6 2.26602 2 2.99935 2H12.9993C13.7327 2 14.3327 2.6 14.3327 3.33333Z" fill="#F44336"/>
<path d="M11 4.3335C11.5523 4.3335 12 3.88578 12 3.3335C12 2.78121 11.5523 2.3335 11 2.3335C10.4477 2.3335 10 2.78121 10 3.3335C10 3.88578 10.4477 4.3335 11 4.3335Z" fill="#B71C1C"/>
<path d="M5 4.3335C5.55228 4.3335 6 3.88578 6 3.3335C6 2.78121 5.55228 2.3335 5 2.3335C4.44772 2.3335 4 2.78121 4 3.3335C4 3.88578 4.44772 4.3335 5 4.3335Z" fill="#B71C1C"/>
<path d="M11.0007 1C10.634 1 10.334 1.3 10.334 1.66667V3.33333C10.334 3.7 10.634 4 11.0007 4C11.3673 4 11.6673 3.7 11.6673 3.33333V1.66667C11.6673 1.3 11.3673 1 11.0007 1ZM5.00065 1C4.63398 1 4.33398 1.3 4.33398 1.66667V3.33333C4.33398 3.7 4.63398 4 5.00065 4C5.36732 4 5.66732 3.7 5.66732 3.33333V1.66667C5.66732 1.3 5.36732 1 5.00065 1Z" fill="#B0BEC5"/>
<path d="M4.33398 6.6665H5.66732V7.99984H4.33398V6.6665ZM6.33398 6.6665H7.66732V7.99984H6.33398V6.6665ZM8.33398 6.6665H9.66732V7.99984H8.33398V6.6665ZM10.334 6.6665H11.6673V7.99984H10.334V6.6665ZM4.33398 8.6665H5.66732V9.99984H4.33398V8.6665ZM6.33398 8.6665H7.66732V9.99984H6.33398V8.6665ZM8.33398 8.6665H9.66732V9.99984H8.33398V8.6665ZM10.334 8.6665H11.6673V9.99984H10.334V8.6665ZM4.33398 10.6665H5.66732V11.9998H4.33398V10.6665ZM6.33398 10.6665H7.66732V11.9998H6.33398V10.6665ZM8.33398 10.6665H9.66732V11.9998H8.33398V10.6665ZM10.334 10.6665H11.6673V11.9998H10.334V10.6665Z" fill="#90A4AE"/>
</svg>
