<svg width="12" height="12" viewBox="0 0 12 12" fill="none" xmlns="http://www.w3.org/2000/svg">
<path d="M3.41841 3.45079L2.09279 2.60142C2.06607 2.58504 2.0434 2.56282 2.0265 2.53642C2.00959 2.51002 1.99889 2.48014 1.99519 2.44901C1.99149 2.41789 1.99489 2.38633 2.00514 2.35671C2.01539 2.32708 2.03221 2.30017 2.05435 2.27798L2.55217 1.78017C2.64779 1.68454 2.80904 1.70517 2.87748 1.82236L3.70623 3.16954C3.81498 3.35517 3.60216 3.56329 3.41841 3.45079ZM2.25967 7.53642L0.72029 7.56735C0.688989 7.56803 0.658249 7.57579 0.630378 7.59005C0.602507 7.60432 0.578232 7.62471 0.559375 7.6497C0.540518 7.6747 0.52757 7.70364 0.521504 7.73435C0.515438 7.76507 0.516412 7.79676 0.524353 7.82704L0.703415 8.50767C0.738103 8.63892 0.887165 8.70173 1.00529 8.63611L2.3656 7.92454C2.5531 7.8186 2.47529 7.53173 2.25967 7.53642ZM5.83529 10.1511L5.49779 11.6502C5.46685 11.7805 5.56529 11.9061 5.69935 11.9061H6.40342C6.53935 11.9061 6.63779 11.7777 6.60404 11.6464L6.23748 10.1474C6.1831 9.93829 5.88591 9.9411 5.83529 10.1511ZM8.58216 3.45079L9.90779 2.60142C10.0222 2.53111 10.0409 2.37267 9.94623 2.27798L9.44841 1.78017C9.42597 1.75782 9.39872 1.74091 9.36873 1.73073C9.33874 1.72055 9.30682 1.71738 9.27541 1.72145C9.244 1.72552 9.21395 1.73673 9.18754 1.75423C9.16114 1.77172 9.1391 1.79502 9.1231 1.82236L8.29435 3.16954C8.1856 3.35517 8.39841 3.56329 8.58216 3.45079ZM9.74091 7.53642L11.2803 7.56735C11.3116 7.56803 11.3423 7.57579 11.3702 7.59005C11.3981 7.60432 11.4223 7.62471 11.4412 7.6497C11.4601 7.6747 11.473 7.70364 11.4791 7.73435C11.4851 7.76507 11.4842 7.79676 11.4762 7.82704L11.2972 8.50767C11.2891 8.53825 11.2741 8.56659 11.2534 8.59051C11.2326 8.61442 11.2067 8.6333 11.1776 8.64568C11.1485 8.65807 11.1169 8.66365 11.0853 8.66199C11.0538 8.66033 11.0229 8.65148 10.9953 8.63611L9.63498 7.92454C9.44748 7.8186 9.52529 7.53173 9.74091 7.53642Z" fill="#FFC107"/>
<path d="M6.37954 0.677813L7.64141 3.55594C7.6889 3.66424 7.76458 3.75781 7.86055 3.8269C7.95652 3.89599 8.06927 3.93807 8.18704 3.94875L11.2611 4.22438C11.6089 4.275 11.7477 4.70156 11.4955 4.94719L9.17985 6.8925C8.99235 7.05 8.90704 7.2975 8.9586 7.53656L9.63172 10.6875C9.69079 11.0334 9.32797 11.2978 9.01672 11.1337L6.3336 9.5625C6.23241 9.50308 6.11719 9.47175 5.99985 9.47175C5.8825 9.47175 5.76729 9.50308 5.6661 9.5625L2.98297 11.1328C2.67266 11.2959 2.30891 11.0325 2.36797 10.6866L3.0411 7.53562C3.09172 7.29656 3.00735 7.04906 2.81985 6.89156L0.503286 4.94812C0.252036 4.70344 0.390786 4.27594 0.737661 4.22531L3.81172 3.94969C3.92949 3.93901 4.04224 3.89693 4.13821 3.82784C4.23418 3.75875 4.30986 3.66517 4.35735 3.55687L5.61922 0.67875C5.77579 0.36375 6.22391 0.36375 6.37954 0.677813Z" fill="#FDD835"/>
<path d="M6.28791 3.72836L6.07416 1.60773C6.06572 1.48961 6.04135 1.28711 6.23072 1.28711C6.38072 1.28711 6.46228 1.5993 6.46228 1.5993L7.10353 3.3018C7.34541 3.94961 7.24604 4.1718 7.0126 4.30305C6.74447 4.45305 6.34885 4.33586 6.28791 3.72836Z" fill="#FFFF8D"/>
<path d="M8.93155 6.70394L10.7709 5.26863C10.8619 5.19269 11.0259 5.07176 10.8947 4.93394C10.7906 4.82519 10.5094 4.98176 10.5094 4.98176L8.89968 5.61082C8.41968 5.77676 8.10093 6.02238 8.0728 6.33176C8.03624 6.74426 8.40655 7.06207 8.93155 6.70394Z" fill="#F4B400"/>
</svg>
