<svg width="32" height="32" viewBox="0 0 32 32" fill="none" xmlns="http://www.w3.org/2000/svg">
<circle cx="16" cy="16" r="16" fill="#373737"/>
<path d="M17.4999 9C17.4182 9.00002 17.3377 9.02007 17.2655 9.0584C17.1933 9.09673 17.1316 9.15217 17.0858 9.21987C17.0401 9.28757 17.0116 9.36545 17.0028 9.44672C16.9941 9.52798 17.0055 9.61014 17.0359 9.686L19.0359 14.686C19.073 14.7787 19.1371 14.8581 19.2198 14.9141C19.3025 14.9701 19.4 15 19.4999 15H23.4999C23.5883 15 23.6752 14.9766 23.7517 14.932C23.8281 14.8875 23.8914 14.8235 23.935 14.7465C23.9786 14.6696 24.001 14.5824 24 14.4939C23.9989 14.4055 23.9744 14.3189 23.9289 14.243L20.9289 9.243C20.8845 9.16888 20.8216 9.10753 20.7464 9.06495C20.6712 9.02236 20.5863 8.99998 20.4999 9H17.4999Z" fill="url(#paint0_linear_777_16458)"/>
<path d="M11.5001 9C11.4137 8.99998 11.3288 9.02236 11.2536 9.06495C11.1784 9.10753 11.1155 9.16888 11.0711 9.243L8.07111 14.243C8.02563 14.3189 8.00111 14.4055 8.00004 14.4939C7.99896 14.5824 8.02138 14.6696 8.065 14.7465C8.10861 14.8235 8.17187 14.8875 8.24831 14.932C8.32475 14.9766 8.41164 15 8.50011 15H12.5001C12.6 15 12.6975 14.9701 12.7802 14.9141C12.8629 14.8581 12.927 14.7787 12.9641 14.686L14.9641 9.686C14.9945 9.61014 15.0059 9.52798 14.9971 9.44672C14.9884 9.36545 14.9599 9.28757 14.9141 9.21987C14.8684 9.15217 14.8067 9.09673 14.7345 9.0584C14.6623 9.02007 14.5818 9.00002 14.5001 9H11.5001Z" fill="url(#paint1_linear_777_16458)"/>
<path d="M14.4999 9C14.4 9.00002 14.3025 9.02994 14.2198 9.08591C14.1371 9.14187 14.073 9.22131 14.0359 9.314L12.0359 14.314C12.0055 14.3899 11.9941 14.472 12.0028 14.5533C12.0116 14.6345 12.0401 14.7124 12.0858 14.7801C12.1316 14.8478 12.1933 14.9033 12.2655 14.9416C12.3377 14.9799 12.4182 15 12.4999 15H19.4999C19.5816 15 19.6621 14.9799 19.7343 14.9416C19.8065 14.9033 19.8681 14.8478 19.9139 14.7801C19.9597 14.7124 19.9882 14.6345 19.9969 14.5533C20.0056 14.472 19.9943 14.3899 19.9639 14.314L17.9639 9.314C17.9267 9.22131 17.8627 9.14187 17.78 9.08591C17.6973 9.02994 17.5997 9.00002 17.4999 9H14.4999Z" fill="url(#paint2_linear_777_16458)"/>
<path d="M19.4997 14C19.3989 14 19.3005 14.0305 19.2173 14.0874C19.1342 14.1443 19.0702 14.2251 19.0337 14.319L15.5337 23.319C15.4909 23.4295 15.4888 23.5516 15.5277 23.6636C15.5666 23.7755 15.644 23.87 15.7461 23.9301C15.8482 23.9903 15.9683 24.0123 16.0851 23.9921C16.2019 23.9719 16.3077 23.9109 16.3837 23.82L23.8837 14.82C23.9445 14.747 23.9832 14.6582 23.9954 14.564C24.0075 14.4697 23.9926 14.374 23.9523 14.288C23.912 14.2019 23.848 14.1291 23.7679 14.0781C23.6877 14.0271 23.5947 14 23.4997 14H19.4997Z" fill="url(#paint3_linear_777_16458)"/>
<path d="M8.49981 14C8.40481 14 8.31178 14.0271 8.23162 14.0781C8.15146 14.1291 8.08748 14.2019 8.04719 14.288C8.0069 14.374 7.99195 14.4697 8.00411 14.564C8.01626 14.6582 8.05501 14.747 8.11581 14.82L15.6158 23.82C15.6918 23.9109 15.7976 23.9719 15.9144 23.9921C16.0311 24.0123 16.1513 23.9903 16.2534 23.9301C16.3555 23.87 16.4329 23.7755 16.4718 23.6636C16.5107 23.5516 16.5086 23.4295 16.4658 23.319L12.9658 14.319C12.9293 14.2251 12.8653 14.1443 12.7822 14.0874C12.699 14.0305 12.6006 14 12.4998 14H8.49981Z" fill="url(#paint4_linear_777_16458)"/>
<path d="M12.1598 14C12.1598 14 11.9378 14.387 12.0338 14.681L15.5338 23.681C15.5704 23.7749 15.6344 23.8556 15.7175 23.9125C15.8007 23.9693 15.8991 23.9998 15.9998 23.9998C16.1006 23.9998 16.199 23.9693 16.2821 23.9125C16.3653 23.8556 16.4293 23.7749 16.4658 23.681L19.9658 14.681C20.0908 14.36 19.8398 14 19.8398 14H12.1598Z" fill="url(#paint5_linear_777_16458)"/>
<path fill-rule="evenodd" clip-rule="evenodd" d="M11.0709 9.243C11.1153 9.16888 11.1782 9.10753 11.2534 9.06495C11.3286 9.02236 11.4135 8.99998 11.4999 9H20.4999C20.5863 8.99998 20.6713 9.02236 20.7464 9.06495C20.8216 9.10753 20.8845 9.16888 20.9289 9.243L23.9249 14.236C23.9804 14.3252 24.0065 14.4296 23.9993 14.5345C23.9921 14.6393 23.9521 14.7392 23.8849 14.82L16.3869 23.817L16.3439 23.863C16.294 23.9103 16.235 23.9468 16.1703 23.9703C16.1057 23.9937 16.037 24.0036 15.9684 23.9993C15.8998 23.995 15.8328 23.9765 15.7716 23.9452C15.7105 23.9138 15.6564 23.8702 15.6129 23.817L8.1189 14.823C8.05108 14.7431 8.01006 14.644 8.00162 14.5396C7.99319 14.4351 8.01777 14.3307 8.0719 14.241L11.0709 9.243Z" fill="url(#paint6_linear_777_16458)" fill-opacity="0.7"/>
<defs>
<linearGradient id="paint0_linear_777_16458" x1="19.4999" y1="9" x2="23.4999" y2="18" gradientUnits="userSpaceOnUse">
<stop stop-color="#0FAFFF"/>
<stop offset="1" stop-color="#102784"/>
</linearGradient>
<linearGradient id="paint1_linear_777_16458" x1="14.0001" y1="6.5" x2="10.5001" y2="14" gradientUnits="userSpaceOnUse">
<stop stop-color="#9FF0F9"/>
<stop offset="1" stop-color="#29C3FF"/>
</linearGradient>
<linearGradient id="paint2_linear_777_16458" x1="15.9999" y1="9" x2="15.9999" y2="16.5" gradientUnits="userSpaceOnUse">
<stop stop-color="#3BD5FF"/>
<stop offset="1" stop-color="#367AF2"/>
</linearGradient>
<linearGradient id="paint3_linear_777_16458" x1="25.9997" y1="9" x2="16.9997" y2="23" gradientUnits="userSpaceOnUse">
<stop stop-color="#1B44B1"/>
<stop offset="1" stop-color="#2052CB"/>
</linearGradient>
<linearGradient id="paint4_linear_777_16458" x1="9.49981" y1="12" x2="15.4998" y2="24" gradientUnits="userSpaceOnUse">
<stop stop-color="#0094F0"/>
<stop offset="1" stop-color="#6CE0FF"/>
</linearGradient>
<linearGradient id="paint5_linear_777_16458" x1="15.9998" y1="10.5" x2="15.9998" y2="24" gradientUnits="userSpaceOnUse">
<stop stop-color="#2052CB"/>
<stop offset="1" stop-color="#0FAFFF"/>
</linearGradient>
<linearGradient id="paint6_linear_777_16458" x1="6.3749" y1="-5.125" x2="19.3679" y2="25.126" gradientUnits="userSpaceOnUse">
<stop offset="0.533" stop-color="#FF6CE8" stop-opacity="0"/>
<stop offset="1" stop-color="#FF6CE8"/>
</linearGradient>
</defs>
</svg>
